<?xml version="1.0" encoding="utf-8"?>
<!-- Generator: Adobe Illustrator 25.2.1, SVG Export Plug-In . SVG Version: 6.00 Build 0)  -->
<svg version="1.1" id="Calque_1" xmlns="http://www.w3.org/2000/svg" xmlns:xlink="http://www.w3.org/1999/xlink" x="0px" y="0px"
	 viewBox="0 0 1920 1080" style="enable-background:new 0 0 1920 1080;" xml:space="preserve">
<style type="text/css">
	.st0{fill:#FFE8CC;}
	.st1{fill:#F7546F;}
</style>
<path class="st0" d="M1550.6,363.9v337c0,41.5-34.8,75.3-77.5,75.3H351.7v-337c0-41.5,34.8-75.3,77.5-75.3H1550.6z"/>
<path class="st1" d="M424.1,355.7c-43.2,0-78.3,35.1-78.3,78.3v350.3h1132.5c43.2,0,78.3-35.1,78.3-78.3V355.7H424.1z M1545,706.1
	c0,36.8-30,66.8-66.8,66.8h-1121V434c0-36.8,30-66.8,66.8-66.8h1121V706.1z"/>
<path class="st1" d="M1214.7,438.2l-20.4-3.9L1155.9,549c-0.6,1.8,0.4,3.8,2.2,4.4c0.4,0.1,0.7,0.2,1.1,0.2c1.5,0,2.8-0.9,3.3-2.4
	l36.5-109l13.8,2.7l-28.9,104.2c-0.5,1.9,0.6,3.8,2.4,4.3c0.3,0.1,0.6,0.1,0.9,0.1c1.5,0,2.9-1,3.4-2.6l29.1-104.8l15.5,3
	l-22.9,100.1c-0.4,1.9,0.7,3.7,2.6,4.2c0.3,0.1,0.5,0.1,0.8,0.1c1.6,0,3-1.1,3.4-2.7l23-100.3l50.1,9.7c0,0,0,0,0,0l0,0c0,0,0,0,0,0
	c0.1,0,0.1,0,0.2,0c0.1,0,0.1,0,0.2,0c0,0,0.1,0,0.1,0c0,0,0,0,0,0c0,0,0,0,0,0c0,0,0,0,0,0c0,0,0,0,0,0c0,0,0,0,0,0
	c0,0,0.1,0,0.1,0c0,0,0,0,0,0c0,0,0.1,0,0.1,0c0.1,0,0.3,0,0.4,0l0,0c0,0,0,0,0,0l50.1-9.7l23,100.3c0.4,1.6,1.8,2.7,3.4,2.7
	c0.3,0,0.5,0,0.8-0.1c1.9-0.4,3.1-2.3,2.6-4.2l-22.9-100.1l15.5-3l29.1,104.8c0.4,1.5,1.8,2.6,3.4,2.6c0.3,0,0.6,0,0.9-0.1
	c1.9-0.5,2.9-2.4,2.4-4.3L1372.9,445l13.8-2.7l36.5,109c0.5,1.5,1.8,2.4,3.3,2.4c0.4,0,0.7-0.1,1.1-0.2c1.8-0.6,2.8-2.6,2.2-4.4
	l-38.4-114.8l-20.4,3.9l-4.5-16.3l-20.3,8.6l-5-22l-33.8,30.6c-1.2-0.6-2.6-0.9-4.1-0.9c4.8,0,8.7-3.4,8.7-7.6
	c0-4.2-3.9-7.6-8.7-7.6c4.8,0,8.7-3.4,8.7-7.6s-3.9-7.6-8.7-7.6c4.8,0,8.7-3.4,8.7-7.6c0-3.4-2.6-6.4-6.2-7.3l25.1-12.4
	c3.6-1.7,5.8-5,5.8-8.6v-38.8V294c0-3.6-2.2-6.8-5.8-8.6l-32.7-16.1c-3.4-1.7-7.7-1.7-11.1,0l-32.7,16.1c-3.6,1.7-5.8,5-5.8,8.6
	v38.8v38.8c0,3.6,2.2,6.8,5.8,8.6l25.1,12.4c-3.6,1-6.2,3.9-6.2,7.3c0,4.2,3.9,7.6,8.7,7.6c-4.8,0-8.7,3.4-8.7,7.6s3.9,7.6,8.7,7.6
	c-4.8,0-8.7,3.4-8.7,7.6c0,4.2,3.9,7.6,8.7,7.6c-1.4,0-2.7,0.3-3.8,0.8l-33.7-30.5l-5,22l-20.3-8.6L1214.7,438.2z M1361.9,431.4
	l2.3,8.1l-15.2,2.9l-1.2-5.1L1361.9,431.4z M1341.3,440.2l0.8,3.7l-17.4,3.4L1341.3,440.2z M1337,421.6l2.7,11.6l-27.8,11.8
	c0-0.2,0-0.4-0.1-0.6L1337,421.6z M1248.7,421.6l24.9,22.5c-0.1,0.2-0.1,0.5-0.1,0.7l-27.4-11.6L1248.7,421.6z M1244.4,440.2l16.6,7
	l-17.4-3.4L1244.4,440.2z M1223.8,431.4l14.1,6l-1.2,5.1l-15.2-2.9L1223.8,431.4z"/>
<path class="st1" d="M506.4,618.5c4.4-8.3,6.5-17.9,6.5-29c0-10.4-2-19.6-5.9-27.7c-3.9-8.1-9.7-14.4-17.4-19
	c-7.7-4.6-17-6.8-27.8-6.8h-49.1v108.3h48.4c10.1,0,19.1-2.2,26.9-6.7C495.9,633.2,502,626.8,506.4,618.5z M476.4,613.2
	c-4.4,5.5-10.1,8.3-17.1,8.3h-17.5v-62.8h18.6c7.1,0,12.7,2.8,16.6,8.5c4,5.7,6,13.1,6,22.2C483,599.8,480.8,607.7,476.4,613.2z"/>
<path class="st1" d="M599.2,637.8l-8.1-19.6c-6.8,3.5-13.9,5.3-21.2,5.3c-4.8,0-8.6-0.9-11.5-2.8c-2.9-1.9-4.9-4.4-6-7.7h47v-8.4
	c0-7.4-1.4-14.2-4.2-20.2c-2.8-6.1-7-10.9-12.5-14.5c-5.5-3.6-12.3-5.4-20.2-5.4c-7.9,0-14.9,1.7-21.3,5
	c-6.3,3.3-11.3,8.2-14.9,14.4c-3.6,6.3-5.4,13.6-5.4,22c0,8.5,2,15.8,5.9,21.9c3.9,6.1,9.4,10.7,16.3,13.8c7,3.1,14.9,4.6,24,4.6
	c6.3,0,12.4-0.8,18.4-2.4C591.5,642.1,596.1,640.1,599.2,637.8z M554.6,590.9c2.1-2.2,4.4-3.3,7.1-3.3c3.3,0,5.8,1.2,7.5,3.5
	c1.7,2.3,2.6,4.8,2.6,7.5h-20.1C551.5,595.7,552.5,593.2,554.6,590.9z"/>
<path class="st1" d="M667.3,570.2h-21.3v-4c0-3.2,0.8-5.7,2.5-7.6c1.6-1.9,3.8-2.8,6.6-2.8c3.8,0,7.5,1,11.2,3l8.3-19.8
	c-2-1.7-5.2-3.3-9.5-4.7c-4.3-1.4-8.3-2.2-11.9-2.2c-6.4,0-12.3,1.2-17.8,3.5c-5.5,2.3-10,5.8-13.3,10.4c-3.3,4.6-5,10.2-5,16.8v7.2
	h-12.7V593h12.7v51.3h29V593H670L667.3,570.2z"/>
<path class="st1" d="M756.2,604.5c0-7.4-1.4-14.2-4.2-20.2c-2.8-6.1-7-10.9-12.5-14.5c-5.5-3.6-12.3-5.4-20.2-5.4
	c-7.9,0-14.9,1.7-21.3,5c-6.3,3.3-11.3,8.2-14.9,14.4c-3.6,6.3-5.4,13.6-5.4,22c0,8.5,2,15.8,5.9,21.9c3.9,6.1,9.4,10.7,16.3,13.8
	c7,3.1,14.9,4.6,24,4.6c6.3,0,12.4-0.8,18.4-2.4c6-1.6,10.6-3.6,13.8-5.9l-8.1-19.6c-6.8,3.5-13.9,5.3-21.2,5.3
	c-4.8,0-8.6-0.9-11.6-2.8c-2.9-1.9-4.9-4.4-6-7.7h47V604.5z M708.4,598.6c-0.1-2.9,0.9-5.4,2.9-7.6c2.1-2.2,4.4-3.3,7.1-3.3
	c3.3,0,5.8,1.2,7.5,3.5c1.7,2.3,2.5,4.8,2.5,7.5H708.4z"/>
<path class="st1" d="M796.3,592.4c2.6-1.2,5.4-2.2,8.4-3.1c3.1-0.9,5.5-1.4,7.2-1.4c3,0,5.1,0.9,6.4,2.6c1.3,1.8,1.9,4,1.9,6.6v47.2
	h29v-49.9c0-9-2.3-16.3-7-21.7c-4.7-5.5-11.7-8.2-21-8.2c-9.8,0-20.3,3.5-31.5,10.5l-5.1-8h-17.2v77.3h29V592.4z"/>
<path class="st1" d="M894.9,623.1c-1.3,0.6-2.9,1-4.8,1c-2.8,0-6.3-0.5-10.8-1.6c-4.4-1.1-8.2-2.3-11.2-3.8L860,637
	c3.9,3.1,9.3,5.4,16,6.8c6.7,1.5,12.4,2.2,17,2.2c10.6,0,18.6-2.3,24.1-6.8c5.4-4.5,8.1-10.9,8.1-19c0-6.4-2.5-11.5-7.6-15.5
	c-5-4-11.6-7.4-19.5-10.1c-2.4-0.8-4.4-1.7-5.9-2.5c-1.5-0.8-2.2-1.6-2.2-2.2c0-1.1,0.7-1.9,2.2-2.5c1.5-0.6,3.4-1,5.7-1
	c2.8,0,5.8,0.4,9.2,1.3c3.3,0.9,6.6,2,9.8,3.3l8.1-18.3c-3.9-3.1-8.6-5.2-14.1-6.5c-5.5-1.2-10.5-1.8-15.1-1.8
	c-10.7,0-19.1,2.3-25.2,6.8c-6.1,4.6-9.1,10.9-9.1,19c0,6.4,2.6,11.5,7.7,15.5c5.1,3.9,11.8,7.3,19.8,10.2c2.2,0.7,4.1,1.6,5.5,2.5
	c1.4,0.9,2.2,1.7,2.2,2.3C896.8,621.6,896.2,622.5,894.9,623.1z"/>
<path class="st1" d="M953.8,641.4c7,3.1,14.9,4.6,24,4.6c6.3,0,12.4-0.8,18.4-2.4c6-1.6,10.6-3.6,13.8-5.9l-8.1-19.6
	c-6.8,3.5-13.9,5.3-21.2,5.3c-4.8,0-8.6-0.9-11.6-2.8c-2.9-1.9-4.9-4.4-6-7.7h47v-8.4c0-7.4-1.4-14.2-4.2-20.2
	c-2.8-6.1-7-10.9-12.5-14.5c-5.5-3.6-12.3-5.4-20.2-5.4c-7.9,0-14.9,1.7-21.3,5c-6.3,3.3-11.3,8.2-14.9,14.4
	c-3.6,6.3-5.4,13.6-5.4,22c0,8.5,2,15.8,5.9,21.9C941.4,633.8,946.8,638.4,953.8,641.4z M965.2,590.9c2.1-2.2,4.4-3.3,7.1-3.3
	c3.3,0,5.8,1.2,7.5,3.5c1.7,2.3,2.5,4.8,2.5,7.5h-20.1C962.2,595.7,963.2,593.2,965.2,590.9z"/>
<polygon class="st1" points="1099,558.9 1096.2,536.1 1026,536.1 1026,644.3 1055,644.3 1055,603.4 1091,603.4 1088.3,580.6 
	1055,580.6 1055,558.9 "/>
<rect x="1110.1" y="567.1" class="st1" width="29" height="77.3"/>
<path class="st1" d="M1135.7,529.7c-3.1-3.1-6.9-4.7-11.2-4.7c-4.2,0-7.9,1.6-11,4.7c-3.1,3.1-4.6,6.9-4.6,11.2
	c0,4.2,1.5,7.9,4.6,11c3.1,3.1,6.7,4.6,11,4.6c4.4,0,8.1-1.5,11.2-4.6c3.1-3.1,4.7-6.7,4.7-11
	C1140.4,536.6,1138.8,532.8,1135.7,529.7z"/>
<path class="st1" d="M1184,592.4c2.6-1.2,5.4-2.2,8.4-3.1c3.1-0.9,5.5-1.4,7.2-1.4c3,0,5.1,0.9,6.4,2.6c1.3,1.8,1.9,4,1.9,6.6v47.2
	h29v-49.9c0-9-2.3-16.3-7-21.7c-4.7-5.5-11.7-8.2-21-8.2c-9.8,0-20.3,3.5-31.5,10.5l-5.1-8H1155v77.3h29V592.4z"/>
<path class="st1" d="M1308.6,638.7l4.3,5.6h14.7V531.8l-29,1.8v32.3c-3.2-1.1-6.6-1.6-10.2-1.6c-12.5,0-22.5,3.5-29.9,10.6
	c-7.4,7.1-11.1,17.3-11.1,30.8c0,13.3,3.6,23.3,10.9,30.1c7.3,6.8,16.9,10.2,28.8,10.2c3.8,0,7.6-0.7,11.2-2
	S1305.4,641,1308.6,638.7z M1281,619.1c-2.4-3.1-3.7-7.6-3.7-13.5c0-5.8,1.2-10.5,3.7-13.9c2.4-3.4,5.5-5.1,9.2-5.1
	c2.4,0,5.2,0.7,8.3,2.1v32.7c-2.3,1.6-4.7,2.4-7,2.4C1287,623.8,1283.5,622.2,1281,619.1z"/>
<path class="st1" d="M1418.8,604.5c0-7.4-1.4-14.2-4.2-20.2c-2.8-6.1-7-10.9-12.5-14.5c-5.5-3.6-12.3-5.4-20.2-5.4
	c-7.9,0-14.9,1.7-21.3,5c-6.3,3.3-11.3,8.2-14.9,14.4c-3.6,6.3-5.4,13.6-5.4,22c0,8.5,2,15.8,5.9,21.9c3.9,6.1,9.4,10.7,16.3,13.8
	c7,3.1,14.9,4.6,24,4.6c6.3,0,12.4-0.8,18.4-2.4c6-1.6,10.6-3.6,13.8-5.9l-8.1-19.6c-6.8,3.5-13.9,5.3-21.2,5.3
	c-4.8,0-8.6-0.9-11.6-2.8c-2.9-1.9-4.9-4.4-6-7.7h47V604.5z M1371,598.6c-0.1-2.9,0.9-5.4,2.9-7.6c2.1-2.2,4.4-3.3,7.1-3.3
	c3.3,0,5.8,1.2,7.5,3.5c1.7,2.3,2.5,4.8,2.5,7.5H1371z"/>
<path class="st1" d="M1459,598.9c3.3-2.5,7.2-4.6,11.8-6.2c4.6-1.6,8.8-2.4,12.6-2.4l-5.9-23.3c-4,0-8.4,1-13.2,2.9
	c-4.8,1.9-9,4.1-12.7,6.7l-7-9.4H1430v77.1h29V598.9z"/>
<polygon class="st1" points="412.7,688.7 412.7,704.3 478.3,704.3 543.9,704.3 572,688.7 543.9,673.1 478.3,673.1 412.7,673.1 "/>
<polygon class="st1" points="905.6,704.3 933.6,688.7 905.6,673.1 840,673.1 774.3,673.1 774.3,688.7 774.3,704.3 840,704.3 "/>
<polygon class="st1" points="744,704.3 772,688.7 744,673.1 698.3,673.1 652.6,673.1 652.6,688.7 652.6,704.3 698.3,704.3 "/>
<polygon class="st1" points="622.2,704.3 650.2,688.7 622.2,673.1 598.3,673.1 574.3,673.1 574.3,688.7 574.3,704.3 598.3,704.3 "/>
<polygon class="st1" points="1067,704.3 1095,688.7 1067,673.1 1001.4,673.1 935.8,673.1 935.8,688.7 935.8,704.3 1001.4,704.3 "/>
<polygon class="st1" points="1363,673.1 1297.4,673.1 1297.4,688.7 1297.4,704.3 1363,704.3 1428.6,704.3 1456.7,688.7 
	1428.6,673.1 "/>
<polygon class="st1" points="1267,704.3 1295,688.7 1267,673.1 1221.3,673.1 1175.7,673.1 1175.7,688.7 1175.7,704.3 1221.3,704.3 
	"/>
<polygon class="st1" points="1145.3,704.3 1173.3,688.7 1145.3,673.1 1121.3,673.1 1097.4,673.1 1097.4,688.7 1097.4,704.3 
	1121.3,704.3 "/>
</svg>
